<?xml version="1.0" encoding="UTF-8" standalone="no"?>
<!-- Bitrails favicon: the Bitrails mark (terracotta "B" + cyan dot) on a transparent background.
     Sourced from bitrails.dev-dot.svg with the path split into letter (terracotta #C2563F) and
     dot (cyan #06B6D4) subpaths so they can be colored independently. Path data and the wrapper
     <g> transform are verbatim from the source; only the split + fill colors changed.
     Next.js serves this file at /icon.svg and emits <link rel="icon" href="/icon.svg">, which
     overrides the bundled Payload favicon PNG (admin.meta.icons falls back to Payload's default
     when no icons override is set, but the file convention takes precedence in the rendered <head>). -->
<svg width="492" height="607" viewBox="0 0 492 607" version="1.1" xmlns="http://www.w3.org/2000/svg" xmlns:xlink="http://www.w3.org/1999/xlink" xml:space="preserve" style="fill-rule:evenodd;clip-rule:evenodd;stroke-linejoin:round;stroke-miterlimit:2;">
    <g transform="matrix(1,0,0,1,-946.830039,-1409.884826)">
        <path d="M1293.547,1995.263C1265.088,2008.136 1233.747,2015.742 1200.768,2016.835L1200.768,1864.751C1245.952,1860.798 1282.356,1824.754 1286.309,1779.57L1438.033,1779.57C1436.94,1812.549 1429.334,1843.89 1416.461,1872.349C1405.291,1867.657 1393.025,1865.063 1380.158,1865.063C1328.335,1865.063 1286.261,1907.137 1286.261,1958.961C1286.261,1971.827 1288.854,1984.093 1293.547,1995.263ZM946.831,1409.982C947.804,1409.918 948.818,1409.885 949.872,1409.885C1027.21,1409.885 1090.849,1469.012 1098.018,1544.487C1098.463,1549.167 1098.691,1558.71 1098.691,1558.71L1098.691,1771.302C1098.691,1820.291 1136.323,1860.56 1184.232,1864.751L1184.232,2016.835C1052.465,2012.468 946.831,1904.124 946.831,1771.302L946.831,1409.982ZM1285.948,1763.016C1281.748,1715.116 1241.483,1677.493 1192.5,1677.493C1160.462,1677.493 1132.153,1693.589 1115.226,1718.128L1115.226,1538.052C1139.528,1529.995 1165.509,1525.633 1192.5,1525.633C1325.322,1525.633 1433.666,1631.267 1438.033,1763.034L1285.948,1763.016ZM946.831,1409.982C946.83,1409.982 946.83,1409.981 946.83,1409.981C946.829,1409.958 946.831,1409.901 946.831,1409.885" style="fill:#C2563F;"/>
        <path d="M1380.158,1901.087C1412.1,1901.087 1438.033,1927.019 1438.033,1958.961C1438.033,1990.902 1412.1,2016.835 1380.158,2016.835C1348.217,2016.835 1322.284,1990.902 1322.284,1958.961C1322.284,1927.019 1348.217,1901.087 1380.158,1901.087Z" style="fill:#06B6D4;"/>
    </g>
</svg>
